<svg width="16" height="18" fill="none" xmlns="http://www.w3.org/2000/svg"><path d="M8 8.656c1.16 0 2.273-.448 3.094-1.245a4.19 4.19 0 0 0 1.281-3.005 4.19 4.19 0 0 0-1.281-3.005A4.441 4.441 0 0 0 8 .156c-1.16 0-2.273.448-3.094 1.245a4.19 4.19 0 0 0-1.281 3.005 4.19 4.19 0 0 0 1.281 3.005A4.441 4.441 0 0 0 8 8.656ZM2.687 9.87a2.22 2.22 0 0 0-1.546.623C.73 10.89.5 11.432.5 11.995v.304c0 1.453.952 2.682 2.303 3.517 1.359.84 3.198 1.34 5.197 1.34s3.838-.5 5.197-1.34c1.351-.835 2.303-2.064 2.303-3.517v-.304c0-.563-.23-1.104-.64-1.502a2.22 2.22 0 0 0-1.547-.623H2.687Z" fill="#CC8E1E"/></svg>