<svg width="14" height="15" fill="none" xmlns="http://www.w3.org/2000/svg"><path d="M6.323 2.237v-.904a.677.677 0 1 1 1.354 0v.904a.677.677 0 0 1-1.354 0Zm4.516 5.419a3.839 3.839 0 1 1-7.678 0 3.839 3.839 0 0 1 7.678 0Zm-1.355 0a2.484 2.484 0 1 0-4.968 0 2.484 2.484 0 0 0 4.968 0Zm-6.802-3.36a.679.679 0 1 0 .96-.96l-.678-.677a.679.679 0 1 0-.96.96l.678.678Zm0 6.718-.677.678a.679.679 0 0 0 .96.96l.677-.678a.679.679 0 0 0-.96-.96Zm8.157-6.52a.678.678 0 0 0 .479-.197l.677-.678a.679.679 0 0 0-.96-.96l-.677.678a.677.677 0 0 0 .48 1.158Zm.479 6.521a.679.679 0 0 0-.96.96l.678.678a.679.679 0 1 0 .96-.96l-.678-.678Zm-9.06-3.359a.677.677 0 0 0-.677-.677H.677a.677.677 0 1 0 0 1.354h.904a.677.677 0 0 0 .677-.677ZM7 12.398a.677.677 0 0 0-.677.677v.904a.677.677 0 0 0 1.354 0v-.904A.677.677 0 0 0 7 12.398Zm6.323-5.42h-.904a.678.678 0 0 0 0 1.355h.904a.678.678 0 0 0 0-1.354Z" fill="#fff"/></svg>