<svg width="28" height="9" fill="none" xmlns="http://www.w3.org/2000/svg"><path d="M20.056.853A5.54 5.54 0 0 0 18.12.518c-2.133 0-3.64 1.075-3.65 2.618-.014 1.133 1.07 1.772 1.89 2.15.841.39 1.123.635 1.12.983-.005.53-.672.77-1.292.77-.852 0-1.317-.12-2.033-.417l-.266-.124-.302 1.776c.519.216 1.453.402 2.418.418 2.268 0 3.751-1.068 3.768-2.71.02-.905-.568-1.589-1.802-2.154-.75-.367-1.216-.612-1.216-.984 0-.33.398-.682 1.232-.682a3.935 3.935 0 0 1 1.617.306l.2.089.303-1.716-.052.012Zm5.536-.19h-1.667c-.518 0-.91.142-1.136.657L19.584 8.58h2.268l.453-1.19 2.768.002c.066.279.265 1.188.265 1.188h2L25.593.662ZM11.402.595h2.162l-1.352 7.922h-2.159l1.35-7.925v.003ZM5.917 4.962l.224 1.1 2.112-5.4h2.29L7.14 8.57H4.856L2.989 1.874a.452.452 0 0 0-.198-.265A9.265 9.265 0 0 0 .668.824l.03-.167h3.478c.472.019.852.167.979.67l.76 3.64v-.005Zm17.01.808.86-2.216c-.01.024.178-.457.287-.754l.148.684.5 2.285h-1.797v.001h.001Z" fill="#8099F7"/></svg>